<svg xmlns="http://www.w3.org/2000/svg" width="1080" height="1350" viewBox="0 0 1080 1350">
  <defs>
    <filter id="fn6-01-paper" x="-10%" y="-10%" width="120%" height="120%">
      <feTurbulence type="fractalNoise" baseFrequency="0.55" numOctaves="4" seed="23"/>
      <feColorMatrix type="saturate" values="0"/>
      <feComponentTransfer><feFuncA type="table" tableValues="0 0.1"/></feComponentTransfer>
    </filter>
    <filter id="fn6-01-photo" x="-5%" y="-5%" width="110%" height="110%">
      <feColorMatrix type="saturate" values="0.9"/>
      <feComponentTransfer>
        <feFuncR type="linear" slope="1.03" intercept="0.01"/>
        <feFuncG type="linear" slope="1.02" intercept="0.01"/>
        <feFuncB type="linear" slope="0.99" intercept="0"/>
      </feComponentTransfer>
    </filter>
    <pattern id="fn6-01-dots" width="12" height="12" patternUnits="userSpaceOnUse">
      <circle cx="2" cy="2" r="1.55" fill="#121416" opacity="0.2"/>
    </pattern>
  </defs>
  <rect width="1080" height="1350" fill="#F8F3EA"/>
  <text x="58" y="94" fill="#121416" font-family="Arial Narrow, Helvetica Neue Condensed, Helvetica Neue, Arial, sans-serif" font-size="22" font-weight="900" letter-spacing="4.1">GROWN MEN GROW</text>
  <text x="1022" y="94" fill="#121416" font-family="Arial Narrow, Helvetica Neue Condensed, Helvetica Neue, Arial, sans-serif" font-size="18" font-weight="900" text-anchor="end" letter-spacing="2.7">FIELD NOTE 06 · 01 / 07</text>
  <text x="64" y="250" fill="#121416" font-family="Arial Narrow, Helvetica Neue Condensed, Helvetica Neue, Arial, sans-serif" font-size="88" font-weight="900" font-style="normal" text-anchor="start" letter-spacing="1.2">ANGER IS A</text>
    <text x="64" y="364" fill="#3A1518" font-family="Arial Narrow, Helvetica Neue Condensed, Helvetica Neue, Arial, sans-serif" font-size="72" font-weight="900" font-style="normal" text-anchor="start" letter-spacing="1.2">TERRIBLE MANAGER.</text>
    <g fill="none" stroke="#B14F3F" stroke-width="8.399999999999999" stroke-linecap="round">
    <path d="M850 250 a25.2 25.2 0 0 1 25.2 -19.599999999999998"/>
    <path d="M861.2 269.6 a47.599999999999994 47.599999999999994 0 0 1 47.599999999999994 -36.4"/>
    <path d="M872.4 289.2 a70 70 0 0 1 70 -53.199999999999996"/>
  </g>
    <g transform="rotate(-0.8 550 820)">
    <rect x="138" y="450" width="824" height="774" fill="#60735A"/>
    <rect x="146" y="436" width="808" height="768" fill="#F8F3EA"/>
    <image href="/assets/source/editorial/detector-test-press.png" x="150" y="440" width="800" height="760" preserveAspectRatio="xMidYMid slice" filter="url(#fn6-01-photo)"/>
  </g>
    <g transform="rotate(-4 365 439)">
    <rect x="260" y="416" width="210" height="46" fill="#D9CBAF" opacity="0.74"/>
    <line x1="268" y1="423" x2="460" y2="420" stroke="#fff" stroke-opacity="0.38"/>
  </g>
  <text x="58" y="1292" fill="#71706B" font-family="Arial Narrow, Helvetica Neue Condensed, Helvetica Neue, Arial, sans-serif" font-size="17" font-weight="900" letter-spacing="2.5">@GROWNMENGROW</text>
  <rect width="1080" height="1350" filter="url(#fn6-01-paper)" opacity="0.22" pointer-events="none"/>
</svg>