<svg xmlns="http://www.w3.org/2000/svg" width="1600" height="1000" viewBox="0 0 1600 1000">
  <defs>
    <filter id="feature-start-paper" x="-10%" y="-10%" width="120%" height="120%">
      <feTurbulence type="fractalNoise" baseFrequency="0.55" numOctaves="4" seed="23"/>
      <feColorMatrix type="saturate" values="0"/>
      <feComponentTransfer><feFuncA type="table" tableValues="0 0.1"/></feComponentTransfer>
    </filter>
    <filter id="feature-start-photo" x="-5%" y="-5%" width="110%" height="110%">
      <feColorMatrix type="saturate" values="0.9"/>
      <feComponentTransfer>
        <feFuncR type="linear" slope="1.03" intercept="0.01"/>
        <feFuncG type="linear" slope="1.02" intercept="0.01"/>
        <feFuncB type="linear" slope="0.99" intercept="0"/>
      </feComponentTransfer>
    </filter>
    <pattern id="feature-start-dots" width="12" height="12" patternUnits="userSpaceOnUse">
      <circle cx="2" cy="2" r="1.55" fill="#121416" opacity="0.2"/>
    </pattern>
  </defs>
  <rect width="1600" height="1000" fill="#F8F3EA"/>
  <rect x="0" y="0" width="1600" height="1000" fill="#EEE6D8"/>
    <rect x="1050" y="0" width="550" height="1000" fill="url(#feature-start-dots)"/>
    <g transform="rotate(-0.8 565 491)">
    <rect x="48" y="76" width="1034" height="864" fill="#3A1518"/>
    <rect x="56" y="62" width="1018" height="858" fill="#F8F3EA"/>
    <image href="/assets/source/editorial/sunlit-writing-table.png" x="60" y="66" width="1010" height="850" preserveAspectRatio="xMidYMid slice" filter="url(#feature-start-photo)"/>
  </g>
    <rect x="1122" y="128" width="392" height="430" fill="#60735A" transform="rotate(2 1318 343)"/>
    <rect x="1160" y="196" width="316" height="80" fill="#F8F3EA" transform="rotate(2 1318 236)"/>
    <g transform="rotate(-4 360 67)">
    <rect x="244" y="44" width="232" height="46" fill="#D9CBAF" opacity="0.74"/>
    <line x1="252" y1="51" x2="466" y2="48" stroke="#fff" stroke-opacity="0.38"/>
  </g>
    <g transform="rotate(5 1298 135)">
    <rect x="1198" y="112" width="200" height="46" fill="#D9CBAF" opacity="0.74"/>
    <line x1="1206" y1="119" x2="1388" y2="116" stroke="#fff" stroke-opacity="0.38"/>
  </g>
    <path d="M1112 878 C1210 814 1344 822 1434 750" fill="none" stroke="#3A1518" stroke-width="10" stroke-linecap="round"/>
    <path d="M1402 730 L1454 736 L1438 786" fill="none" stroke="#3A1518" stroke-width="10" stroke-linecap="round" stroke-linejoin="round"/>
  <rect width="1600" height="1000" filter="url(#feature-start-paper)" opacity="0.22" pointer-events="none"/>
</svg>